<svg width="45" height="43" viewBox="0 0 45 43" fill="none" xmlns="http://www.w3.org/2000/svg">
<path d="M19.0694 8.95739C19.3495 8.95648 19.6262 9.01556 19.8793 9.13028C20.1324 9.24499 20.3554 9.41244 20.5319 9.62031L29.5881 20.3703C29.8639 20.6909 30.0146 21.093 30.0146 21.508C30.0146 21.923 29.8639 22.3251 29.5881 22.6457L20.2131 33.3957C19.8948 33.7616 19.4375 33.9917 18.9417 34.0354C18.4459 34.0791 17.9523 33.9328 17.5694 33.6286C17.1865 33.3245 16.9457 32.8875 16.8999 32.4138C16.8542 31.94 17.0073 31.4683 17.3256 31.1024L25.7069 21.4991L17.6069 11.8957C17.3776 11.6327 17.2319 11.3125 17.1872 10.9729C17.1424 10.6333 17.2004 10.2885 17.3542 9.97941C17.5081 9.67029 17.7514 9.40976 18.0553 9.22864C18.3593 9.04752 18.7112 8.95339 19.0694 8.95739Z" fill="white"/>
</svg>
